<svg xmlns="http://www.w3.org/2000/svg" version="1.1" xmlns:xlink="http://www.w3.org/1999/xlink" xmlns:svgjs="http://svgjs.dev/svgjs" width="2000" height="1500" viewBox="0 0 2000 1500"><rect width="2000" height="1500" fill="#fbbaa7"></rect><g transform="matrix(0.75,0,0,0.75,249.239707578786,271.8874493927126)"><svg viewBox="0 0 387 247" data-background-color="#fbbaa7" preserveAspectRatio="xMidYMid meet" height="1276" width="2000" xmlns="http://www.w3.org/2000/svg" xmlns:xlink="http://www.w3.org/1999/xlink"><g id="tight-bounds" transform="matrix(1,0,0,1,0.19615544467322366,-0.09999999999999432)"><svg viewBox="0 0 386.60768911065355 247.2" height="247.2" width="386.60768911065355"><g><svg viewBox="0 0 397.4976 254.16309475385512" height="247.2" width="386.60768911065355"><g><rect width="397.4976" height="7.7846799027510425" x="0" y="139.67686373697515" fill="#f70f03" opacity="1" stroke-width="0" stroke="transparent" fill-opacity="1" class="rect-qz-0" data-fill-palette-color="secondary" rx="1%" id="qz-0" data-palette-color="#f70f03"></rect></g><g transform="matrix(1,0,0,1,0.9887999999999693,167.84028684064515)"><svg viewBox="0 0 395.52000000000004 86.32280791320997" height="86.32280791320997" width="395.52000000000004"><g id="textblocktransform"><svg viewBox="0 0 395.52000000000004 86.32280791320997" height="86.32280791320997" width="395.52000000000004" id="textblock"><g><svg viewBox="0 0 395.52000000000004 86.32280791320997" height="86.32280791320997" width="395.52000000000004"><g transform="matrix(1,0,0,1,0,0)"><svg width="395.52000000000004" viewBox="0.55 -29.45 156.69 34.2" height="86.32280791320997" data-palette-color="#f70f03"><path d="M34.85 1.25L34.85 1.25Q33.3 1.25 32.6-0.13 31.9-1.5 31.9-3.63 31.9-5.75 32.8-9.45L32.8-9.45Q31.05-9.6 26.85-10.15L26.85-10.15Q19.9-1.55 15.3 1.8L15.3 1.8Q11.35 4.75 7.1 4.75L7.1 4.75Q4.4 4.75 2.48 3.4 0.55 2.05 0.55-0.6L0.55-0.6Q0.55-1.1 0.8-1.53 1.05-1.95 1.3-1.75 1.55-1.55 1.55-0.6L1.55-0.6Q1.55 1.1 2.88 1.95 4.2 2.8 6.1 2.8L6.1 2.8Q10.2 2.8 14.18 0.13 18.15-2.55 25-10.35L25-10.35Q17.65-11.25 15.3-11.25L15.3-11.25Q8.95-11.25 7.45-7.1L7.45-7.1Q7.25-6.55 7.25-6.08 7.25-5.6 7.45-5.23 7.65-4.85 7.53-4.63 7.4-4.4 7.1-4.42 6.8-4.45 6.6-4.75L6.6-4.75Q6.05-5.7 6.05-6.6L6.05-6.6Q6.05-9.7 7.18-11.18 8.3-12.65 9.8-13.05L9.8-13.05Q11.6-13.55 14-13.55 16.4-13.55 26.1-11.65L26.1-11.65Q28.8-14.75 34.3-21.63 39.8-28.5 39.8-28.6L39.8-28.6 39.85-28.6Q39.9-28.65 40.1-28.75L40.1-28.75Q41.3-29.45 42.7-29.45L42.7-29.45Q43.2-29.45 43.2-28.95L43.2-28.95Q43.2-28.9 43.15-28.83 43.1-28.75 43.05-28.63 43-28.5 42.95-28.4L42.95-28.4Q38.15-20.45 35.5-10.5L35.5-10.5 35.35-10.15 36.6-10.1Q37-10.05 38.02-10.05 39.05-10.05 40.2-10.53 41.35-11 41.68-11.55 42-12.1 42.25-11.8 42.5-11.5 42.3-11.15L42.3-11.15Q41.75-10.15 40.35-9.7L40.35-9.7Q39.15-9.2 37.98-9.2 36.8-9.2 36.45-9.2L36.45-9.2 35.1-9.25Q34.15-4.9 34.15-2.33 34.15 0.25 35.55 0.25L35.55 0.25Q36.9 0.25 39.75-1.9 42.6-4.05 45.1-7.45L45.1-7.45Q45.25-7.65 45.5-7.55 45.75-7.45 45.75-7.3 45.75-7.15 45.68-6.93 45.6-6.7 44.9-5.8L44.9-5.8Q42.8-3 39.75-0.5L39.75-0.5Q37.55 1.25 34.85 1.25ZM37.6-23.9L37.6-23.9Q37.65-24 37.73-24.18 37.8-24.35 37.85-24.45L37.85-24.45Q31.6-15.9 27.8-11.25L27.8-11.25 33.05-10.4Q34.45-15.85 37.6-23.9ZM58.35-14.2L58.35-14.2Q59.5-14.2 59.5-12.98 59.5-11.75 58.35-9.6 57.2-7.45 56.65-6.1L56.65-6.1Q55.7-3.8 55.7-2.43 55.7-1.05 56.1-0.6L56.1-0.6Q56.85 0.2 58.15-0.53 59.45-1.25 61.77-3.33 64.1-5.4 65.5-7.4L65.5-7.4Q65.7-7.65 65.97-7.53 66.25-7.4 66.25-7.28 66.25-7.15 66.15-7L66.15-7Q65.4-5.65 63.45-3.55 61.5-1.45 59.7-0.18 57.9 1.1 56.15 1.1L56.15 1.1Q54.45 1.05 53.75 0.33 53.05-0.4 53.05-1.5 53.05-2.6 53.25-3.63 53.45-4.65 54-6L54-6Q54.9-8.15 55.57-9.35 56.25-10.55 56.25-10.93 56.25-11.3 55.85-11.3L55.85-11.3Q55.05-11.3 52.8-9.35L52.8-9.35Q51.25-7.9 48.22-3.88 45.2 0.15 44.8 0.4L44.8 0.4Q43 1.3 42.55 1.3 42.1 1.3 42.1 1.15 42.1 1 42.2 0.73 42.3 0.45 43.17-2 44.05-4.45 45.07-7.38 46.1-10.3 46.32-10.9 46.55-11.5 46.62-11.93 46.7-12.35 46.8-12.65 46.9-12.95 47.17-13.33 47.45-13.7 47.9-13.73 48.35-13.75 49.05-13.63 49.75-13.5 49.75-13L49.75-13Q49.75-12.65 49.2-11.48 48.65-10.3 46.05-3.4L46.05-3.4Q47.85-5.6 50.6-8.47 53.35-11.35 55.25-12.85L55.25-12.85Q57.15-14.2 58.35-14.2ZM72.25-13.95L72.9-14Q76.75-14.35 77.57-14.35 78.4-14.35 78.4-14.1L78.4-14.1Q78.4-13.8 77.22-13.48 76.05-13.15 71.5-12.65L71.5-12.65Q71.25-12.2 70.9-11.6L70.9-11.6Q70.15-10.4 70.1-10.15L70.1-10.15Q67.25-4.45 67.1-2.9L67.1-2.9Q67.05-2.45 67.05-1.75 67.05-1.05 67.45-0.6L67.45-0.6Q68.15 0.2 69.45-0.5 70.75-1.2 73.07-3.3 75.4-5.4 76.85-7.4L76.85-7.4Q77.05-7.65 77.35-7.5L77.35-7.5Q78.1-7.15 74.75-3.55L74.75-3.55Q71.55-0.1 69.4 0.7L69.4 0.7Q68.15 1.15 67.3 1.15L67.3 1.15Q65.3 1.15 64.65-0.75L64.65-0.75Q64.55-1.1 64.55-1.6L64.55-1.6Q64.55-3.35 66.15-6.9L66.15-6.9Q65.9-6.35 64.2-4.4L64.2-4.4Q63.75-3.9 63.5-4.4L63.5-4.4Q63.45-4.5 63.45-4.67 63.45-4.85 63.65-5.1L63.65-5.1Q66.1-8.15 67.5-10.25L67.5-10.25Q67.5-10.3 68.6-12.35L68.6-12.35Q68.1-12.25 67.57-12.25 67.05-12.25 66.8-12.58 66.55-12.9 66.75-13.35L66.75-13.35Q67.1-14.15 69.4-14.25L69.4-14.25Q69.45-14.35 69.6-14.35L69.6-14.35 72.1-19Q72.3-19.4 72.55-19.83 72.8-20.25 72.92-20.48 73.05-20.7 73.2-20.95 73.35-21.2 73.45-21.3 73.55-21.4 73.65-21.5L73.65-21.5Q73.85-21.8 74.82-21.8 75.8-21.8 76.15-21.25L76.15-21.25Q76.3-21.05 76.3-20.58 76.3-20.1 75.95-19.53 75.6-18.95 75.2-18.7 74.8-18.45 74.65-18.15L74.65-18.15 72.25-13.95ZM87.74-14.55L87.74-14.55Q90.44-14.55 90.44-11.95L90.44-11.95Q90.44-10.6 89.69-9.75L89.69-9.75Q88.44-7.9 85.64-6.53 82.84-5.15 80.89-5L80.89-5Q80.19-4.95 80.14-5.4L80.14-5.4Q80.09-5.6 80.27-5.65 80.44-5.7 80.54-5.7L80.54-5.7Q81.69-5.8 83.49-6.8L83.49-6.8Q86.84-8.6 88.39-10.5L88.39-10.5Q89.04-11.4 89.04-12.23 89.04-13.05 88.24-13.05L88.24-13.05Q87.59-13.05 86.49-12.5L86.49-12.5Q84.14-11.4 81.54-8.68 78.94-5.95 78.14-3.35L78.14-3.35Q77.89-2.55 77.89-1.78 77.89-1 78.54-0.3 79.19 0.4 80.54 0.4L80.54 0.4Q82.04 0.4 83.99-0.4L83.99-0.4Q89.64-2.7 92.69-7.35L92.69-7.35Q92.99-7.75 93.24-7.5L93.24-7.5Q93.44-7.4 93.44-7.25 93.44-7.1 93.29-6.9L93.29-6.9Q91.79-4.4 89.49-2.45L89.49-2.45Q85.04 1.35 80.84 1.35L80.84 1.35Q77.24 1.35 75.79-0.8L75.79-0.8Q75.24-1.65 75.24-2.85 75.24-4.05 75.89-5.7L75.89-5.7Q77.14-8.55 81.24-11.55 85.34-14.55 87.74-14.55ZM106.04-14.2L106.04-14.2Q107.19-14.2 107.19-12.98 107.19-11.75 106.04-9.6 104.89-7.45 104.34-6.1L104.34-6.1Q103.39-3.8 103.39-2.43 103.39-1.05 103.79-0.6L103.79-0.6Q104.54 0.2 105.84-0.53 107.14-1.25 109.47-3.33 111.79-5.4 113.19-7.4L113.19-7.4Q113.39-7.65 113.67-7.53 113.94-7.4 113.94-7.28 113.94-7.15 113.84-7L113.84-7Q113.09-5.65 111.14-3.55 109.19-1.45 107.39-0.18 105.59 1.1 103.84 1.1L103.84 1.1Q102.14 1.05 101.44 0.33 100.74-0.4 100.74-1.5 100.74-2.6 100.94-3.63 101.14-4.65 101.69-6L101.69-6Q102.59-8.15 103.27-9.35 103.94-10.55 103.94-10.93 103.94-11.3 103.54-11.3L103.54-11.3Q102.74-11.3 100.49-9.35L100.49-9.35Q98.94-7.9 95.92-3.88 92.89 0.15 92.49 0.4L92.49 0.4Q90.69 1.3 90.24 1.3 89.79 1.3 89.79 1.15 89.79 1 89.89 0.73 89.99 0.45 90.87-2 91.74-4.45 92.77-7.38 93.79-10.3 94.02-10.9 94.24-11.5 94.32-11.93 94.39-12.35 94.49-12.65 94.59-12.95 94.87-13.33 95.14-13.7 95.59-13.73 96.04-13.75 96.74-13.63 97.44-13.5 97.44-13L97.44-13Q97.44-12.65 96.89-11.48 96.34-10.3 93.74-3.4L93.74-3.4Q95.54-5.6 98.29-8.47 101.04-11.35 102.94-12.85L102.94-12.85Q104.84-14.2 106.04-14.2ZM126.49-14.2L126.49-14.2Q127.64-14.2 127.64-12.98 127.64-11.75 126.49-9.6 125.34-7.45 124.79-6.1L124.79-6.1Q123.84-3.8 123.84-2.43 123.84-1.05 124.24-0.6L124.24-0.6Q124.99 0.2 126.29-0.53 127.59-1.25 129.91-3.33 132.24-5.4 133.64-7.4L133.64-7.4Q133.84-7.65 134.11-7.53 134.39-7.4 134.39-7.28 134.39-7.15 134.29-7L134.29-7Q133.54-5.65 131.59-3.55 129.64-1.45 127.84-0.18 126.04 1.1 124.29 1.1L124.29 1.1Q122.59 1.05 121.89 0.33 121.19-0.4 121.19-1.5 121.19-2.6 121.39-3.63 121.59-4.65 122.14-6L122.14-6Q123.04-8.15 123.71-9.35 124.39-10.55 124.39-10.93 124.39-11.3 123.99-11.3L123.99-11.3Q123.19-11.3 120.94-9.35L120.94-9.35Q119.39-7.9 116.36-3.88 113.34 0.15 112.94 0.4L112.94 0.4Q111.14 1.3 110.69 1.3 110.24 1.3 110.24 1.15 110.24 1 110.34 0.73 110.44 0.45 111.31-2 112.19-4.45 113.21-7.38 114.24-10.3 114.46-10.9 114.69-11.5 114.76-11.93 114.84-12.35 114.94-12.65 115.04-12.95 115.31-13.33 115.59-13.7 116.04-13.73 116.49-13.75 117.19-13.63 117.89-13.5 117.89-13L117.89-13Q117.89-12.65 117.34-11.48 116.79-10.3 114.19-3.4L114.19-3.4Q115.99-5.6 118.74-8.47 121.49-11.35 123.39-12.85L123.39-12.85Q125.29-14.2 126.49-14.2ZM135.54 0.55L135.54 0.55Q134.74 0.55 133.81 0.08 132.89-0.4 132.24-1.28 131.59-2.15 131.59-3.15 131.59-4.15 132.04-5.05L132.04-5.05Q133.04-7.15 135.26-9.13 137.49-11.1 139.89-12.5 142.29-13.9 143.69-14.25 145.09-14.6 146.41-14.6 147.74-14.6 148.69-13.93 149.64-13.25 149.64-12.5L149.64-12.5Q149.64-12.25 149.59-12.2 149.54-12.15 149.34-12.25L149.34-12.25Q148.74-13.2 146.86-13.2 144.99-13.2 142.61-11.98 140.24-10.75 138.14-8.9L138.14-8.9Q136.39-7.25 135.06-5.18 133.74-3.1 133.74-2.15L133.74-2.15Q133.74-0.3 134.79-0.3 135.84-0.3 137.99-2L137.99-2Q141.54-5 142.84-6.4L142.84-6.4Q147.44-11.35 147.79-11.35L147.79-11.35Q148.39-11.35 149.24-11 150.09-10.65 149.79-10.15L149.79-10.15Q147.24-6.55 146.79-2.9L146.79-2.9Q146.74-2.45 146.74-1.75 146.74-1.05 147.14-0.6L147.14-0.6Q147.89 0.2 149.19-0.5 150.49-1.2 152.81-3.3 155.14-5.4 156.54-7.4L156.54-7.4Q156.74-7.65 156.99-7.53 157.24-7.4 157.24-7.3L157.24-7.3Q157.24-6.55 154.86-4.03 152.49-1.5 151.24-0.6L151.24-0.6Q148.89 1.15 146.89 1.15L146.89 1.15Q144.99 1.15 144.34-0.75L144.34-0.75Q144.19-1.35 144.19-2.1L144.19-2.1Q144.19-4.35 145.14-6.85L145.14-6.85Q144.94-6.75 143.29-4.85 141.64-2.95 139.46-1.2 137.29 0.55 135.54 0.55Z" opacity="1" transform="matrix(1,0,0,1,0,0)" fill="#f70f03" class="wordmark-text-0" data-fill-palette-color="primary" id="text-0"></path></svg></g></svg></g></svg></g></svg></g><g transform="matrix(1,0,0,1,143.89722375360458,0)"><svg viewBox="0 0 109.70315249279082 119.29812053605619" height="119.29812053605619" width="109.70315249279082"><g><svg xmlns="http://www.w3.org/2000/svg" xmlns:xlink="http://www.w3.org/1999/xlink" version="1.1" x="8" y="0" viewBox="6.953045232290085 2.023 36.09395476770991 45.953" enable-background="new 0 0 50 50" xml:space="preserve" height="119.29812053605619" width="93.70315249279082" class="icon-icon-0" data-fill-palette-color="accent" id="icon-0"><g fill="#f70f03" data-fill-palette-color="accent"><path fill="#f70f03" d="M43.045 32.241l-0.048 0.067c0.017-0.017 0.032-0.033 0.05-0.052C43.047 32.252 43.045 32.247 43.045 32.241z" data-fill-palette-color="accent"></path><path fill="#f70f03" d="M32.256 15.162c-0.998-0.396-1.799-1.162-2.236-2.129l-3.258 2.986L12.811 2.023c-0.016 0.017-0.034 0.031-0.052 0.049-1.981 1.981-3.452 4.286-4.419 6.76-1.659 4.238-1.823 8.967-0.528 13.413 2.058 5.642 5.958 10.351 10.966 13.376 1.351 0.711 2.756 1.268 4.189 1.676 0.115 0.918 0.499 1.715 1.187 2.369 0.122 0.117 0.251 0.223 0.383 0.323-1.243 0.313-2.324 0.896-3.242 1.761-1.439 1.354-2.159 3.047-2.159 5.08 0 0.4 0.026 0.781 0.078 1.146h3.499v-0.002c0-2.604 2.042-4.716 4.561-4.716s4.56 2.111 4.56 4.716v0.002h3.79c-0.014-2.336-0.846-4.293-2.498-5.869-0.99-0.945-2.137-1.604-3.436-1.986 0.115-0.086 0.229-0.178 0.334-0.277 0.556-0.521 0.889-1.148 1.013-1.873 1.778-0.191 3.532-0.586 5.204-1.24 2.474-0.967 4.777-2.438 6.759-4.42L29.229 18.495 32.256 15.162zM27.159 42.365c-0.699 0-1.267-0.566-1.267-1.266 0-0.701 0.566-1.268 1.267-1.268s1.267 0.566 1.267 1.268C28.426 41.799 27.859 42.365 27.159 42.365zM27.057 39.094c-0.896 0-1.666-0.543-2.031-1.326 1.289 0.233 2.587 0.33 3.885 0.323C28.502 38.697 27.824 39.094 27.057 39.094z" data-fill-palette-color="accent"></path><ellipse fill="#f70f03" cx="34.756" cy="10.821" rx="4.146" ry="4.099" data-fill-palette-color="accent"></ellipse></g></svg></g></svg></g><g><rect width="64.61019968879654" height="7.7846799027510425" y="110.51344063330515" x="253.6003762463954" fill="#f70f03" data-fill-palette-color="secondary"></rect><rect width="64.61019968879654" height="7.7846799027510425" y="110.51344063330515" x="79.28702406480804" fill="#f70f03" data-fill-palette-color="secondary"></rect></g></svg></g><defs></defs></svg><rect width="386.60768911065355" height="247.2" fill="none" stroke="none" visibility="hidden"></rect></g></svg></g></svg>